<mxfile host="app.diagrams.net" modified="2023-04-13T12:12:19.865Z" agent="Mozilla/5.0 (Windows NT 10.0; Win64; x64) AppleWebKit/537.36 (KHTML, like Gecko) Chrome/112.0.0.0 Safari/537.36 Edg/112.0.1722.39" version="21.1.7" etag="TDp2G11nHUPLuAN-jF3-" type="github">
  <diagram name="第 1 页" id="inXtB0Tx1DrzWMI4Wm4f">
    <mxGraphModel>
      <root>
        <mxCell id="0" />
        <mxCell id="1" parent="0" />
      </root>
    </mxGraphModel>
  </diagram>
</mxfile>
